<svg xmlns="http://www.w3.org/2000/svg" viewBox="0 0 384 512">
<path d="M166.8,251.7c0-13.4,11.4-36.8,25.1-36.8c14.1,0,25.1,23.4,25.1,36.8v45.8l69.1,39.5c3.9,2.2,6.3,6.4,6.3,10.9v22.1
	c0,4.2-4,7.2-8,6l-67.4-19.2v40.4l22.6,17c1.6,1.2,2.5,3.1,2.5,5v16.5c0,3.1-2.5,5.5-5.5,5.5c-0.5,0-1-0.1-1.5-0.2L192,428.5
	l-43.2,12.4c-0.5,0.2-1,0.2-1.5,0.2c-3.1,0-5.5-2.5-5.5-5.5v-16.5c0-2,0.9-3.8,2.5-5l22.6-17v-40.4l-67.4,19.2c-4,1.2-8-1.8-8-6
	v-22.1c0-4.5,2.4-8.7,6.3-10.9l69.1-39.5V251.7L166.8,251.7z M336,448V160h-80c-17.7,0-32-14.3-32-32V48H64c-8.8,0-16,7.2-16,16v384
	c0,8.8,7.2,16,16,16h256C328.8,464,336,456.8,336,448z M0,64C0,28.7,28.7,0,64,0h165.5c17,0,33.3,6.7,45.3,18.7l90.5,90.5
	c12,12,18.7,28.3,18.7,45.3V448c0,35.3-28.7,64-64,64H64c-35.3,0-64-28.7-64-64V64z M96,96h80c8.8,0,16,7.2,16,16s-7.2,16-16,16H96
	c-8.8,0-16-7.2-16-16S87.2,96,96,96z M96,160h80c8.8,0,16,7.2,16,16s-7.2,16-16,16H96c-8.8,0-16-7.2-16-16S87.2,160,96,160z"/>
</svg>
