<svg xmlns="http://www.w3.org/2000/svg" width="180" height="180" viewBox="5 19 96 108"><path fill="#839EC8" d="M18.68 53.1c3.12 14.23 17.41 23.23 30.33 20.7-9.82-2.76-18.06-11.36-20.57-22.85-2.52-11.48 1.37-22.74 9.14-29.35-12.8 3.1-22.02 17.25-18.9 31.5z"></path><path fill="#005695" d="M99.23 99.42c14.26-25.18 5.06-57.41-17.38-70.8 10.85 17.1 11.63 40.72.13 61.03-11.51 20.3-32.17 31.78-52.41 31.26 23.01 12.37 55.4 3.69 69.66-21.49z"></path><path fill="#FAB816" d="M48.5 21.26C36.55 26.1 30.84 39.91 34.97 50.8c.94-8.97 7.2-17.44 16.85-21.35 9.64-3.9 20.03-2.2 26.95 3.6-4.61-10.7-18.32-16.63-30.27-11.79z"></path><path fill="#678BBB" d="M25.08 87.73c16.81 7.03 36.28-1.14 42.96-16.18-9.87 8.07-24.58 10.33-38.14 4.66C16.33 70.54 7.6 58.48 6.42 45.79.42 61.1 8.27 80.7 25.08 87.73z"></path><path fill="#4979AF" d="M46.88 110.37c21.42-4.41 35.18-25.68 31.63-45.1-4.33 14.67-17.38 26.86-34.66 30.42C26.58 99.25 9.77 93.2 0 81.43c4.42 19.25 25.46 33.35 46.88 28.94z"></path></svg>
