<svg xmlns="http://www.w3.org/2000/svg" viewBox="0 0 103.2 104.3">
<path d="M64.6,22.1v20.4l7.1,4.5c0.2,0.1,0.6,0.1,0.8,0l30.7-20.7c0-2.4-2.3-4.2-3.6-4.2H64.6z M64.6,50.1l6.5,4.5
	c0.9,0.7,2,0,2,0c-1.1,0.7,30.1-20,30.1-20v37.5c0,4.1-2.6,5.8-5.6,5.8H64.6L64.6,50.1L64.6,50.1z M30.9,40.7c-2.2,0-4,1-5.3,3.1
	c-1.3,2.1-2,4.8-2,8.3c0,3.5,0.7,6.2,2,8.3c1.3,2,3,3,5.1,3c2.2,0,3.9-1,5.2-3c1.3-2,1.9-4.7,1.9-8.2c0-3.6-0.6-6.5-1.9-8.5
	C34.7,41.7,33,40.7,30.9,40.7z M0,11.8v79.8l60.7,12.7V0L0,11.8z M40.6,65.2c-2.6,3.4-5.9,5.1-10,5.1c-4,0-7.3-1.6-9.8-4.9
	C18.2,62,17,57.8,17,52.5c0-5.6,1.3-10,3.9-13.5s6-5.1,10.2-5.1c4,0,7.3,1.6,9.7,4.9c2.5,3.3,3.7,7.6,3.7,13
	C44.5,57.3,43.2,61.8,40.6,65.2z"/>
</svg>
