<svg xmlns="http://www.w3.org/2000/svg" viewBox="0 0 174 84">
  <path d="M173.3,83.2H158c-5-8.6-10.2-17.7-15.7-27.2c-3.2,3.6-6.2,6.9-9.2,10.3v16.2c-10.3,0-20.4,0.5-30.4-0.2
	c-5.2-0.4-8.4-4.8-8.7-10.2c-0.5-8.3-0.3-16.6-0.6-25c-0.2-7.8-5-12.2-12.4-11.7c-4.8,0.3-8.6,3.1-9.8,7.8c-0.7,2.7-0.9,5.6-1,8.4
	c-0.1,10.3,0,20.7,0,31.8c-1.8,0-3.4,0-5,0c-16,0-32,0-48,0C4.3,83.4,0,79.1,0,66.4c0-22,0-44,0-66.3h12.2c0,1.7,0,3.5,0,5.2
	c0,19.8,0,39.7,0,59.5c0,2.2,0.6,4.3,1,6.6h17.6V24.1H43V71h15V24.1h11.8c0.2,1.5,0.3,3.1,0.5,4.2c4.1-1.6,8.1-4,12.3-4.7
	c12.6-2.2,22.9,6.8,23.3,19.7c0.2,7.2,0,14.3,0,21.5c0,1.8,0.2,3.6,0.3,6.1h14.6V0.1h12v49.6c0.4,0.2,0.8,0.4,1.2,0.6
	c7.3-8.8,14.6-17.7,21.9-26.5h14.6c-7,8-13.5,15.5-20.3,23.2C157.8,59,165.4,70.8,173.3,83.2z M42.7,0H31.1v11.5h11.6V0z"/>
</svg>